<svg xml:space="preserve" viewBox="0 0 100 100" y="0" x="0" xmlns="http://www.w3.org/2000/svg" id="圖層_1" version="1.1" style="height: 100%; width: 100%; background: rgb(255, 255, 255);" width="207px" height="207px"><g class="ldl-scale" style="transform-origin: 50% 50%; transform: rotate(0deg) scale(0.8, 0.8);"><g class="ldl-ani" style="transform-origin: 50px 50px;"><g class="ldl-layer"><g class="ldl-ani" style="transform-origin: 50px 50px; transform: scale(0.91); animation: 2.43902s linear -1.87805s infinite normal forwards running breath-4c7c34bb-1cb6-4938-bab4-0293fcec7026;"><path stroke-miterlimit="10" stroke-width="3.5" stroke="#333" fill="#f8b26a" d="M21.895 87.55l8.832-54.544c.14-.867.795-1.579 1.659-1.733 7.184-1.283 33.929 14.158 36.411 21.022.299.826.009 1.749-.672 2.304L25.305 89.52c-1.501 1.224-3.72-.057-3.41-1.97z" style="fill: rgb(248, 178, 106); stroke: rgb(51, 51, 51);"></path></g></g><g class="ldl-layer"><g class="ldl-ani" style="transform-origin: 50px 50px; transform: scale(0.91); animation: 2.43902s linear -2.43902s infinite normal forwards running breath-4c7c34bb-1cb6-4938-bab4-0293fcec7026;"><path stroke-miterlimit="10" stroke-width="3.5" stroke="#333" fill="#e15b64" d="M58.078 49.869a45.032 45.032 0 0 0 7.519 1.564 21.63 21.63 0 0 0 9.621-8.812c6.005-10.4 2.441-23.699-7.959-29.704s-23.699-2.441-29.704 7.959a21.632 21.632 0 0 0-2.821 12.738 45.018 45.018 0 0 0 13.604 12.075 45.98 45.98 0 0 0 2.817 1.483c.433 1.617-.738 3.554-1.811 5.047a42.426 42.426 0 0 0-2.605 4.101c-.676 1.213-1.301 2.688-.699 3.939.605 1.257 2.283 1.698 3.617 1.291 1.334-.407 2.37-1.454 3.236-2.548a21.12 21.12 0 0 0 3.013-5.185c.483-1.198.872-2.468 1.691-3.467.15-.183.312-.339.481-.481z" style="fill: rgb(225, 91, 100); stroke: rgb(51, 51, 51);"></path></g></g><metadata xmlns:d="https://loading.io/stock/"><d:name>ice cream</d:name><d:tags>ice cream,scoop,haggen daz,cold stone,desert,dessert,sweet,cold,popsicle</d:tags><d:license>by</d:license><d:slug>alln4j</d:slug></metadata></g></g></svg>